Coordinates
version=1
nRows=14
nColumns=24
inDegrees=yes

Units are S.I. units (second, meters, Newtons, ...)
Angles are in degrees.

endheader
time	pelvis_tilt	pelvis_list	pelvis_rotation	pelvis_tx	pelvis_ty	pelvis_tz	hip_flexion_r	hip_adduction_r	hip_rotation_r	knee_angle_r	ankle_angle_r	subtalar_angle_r	mtp_angle_r	hip_flexion_l	hip_adduction_l	hip_rotation_l	knee_angle_l	ankle_angle_l	subtalar_angle_l	mtp_angle_l	lumbar_extension	lumbar_bending	lumbar_rotation
      4.63000000	      2.67719487	     -6.99210842	    -14.30185645	      0.71666878	      0.92187709	     -0.12532349	    -25.13393691	      3.98592814	      6.24548850	     -7.41667175	     15.87805285	     10.71762352	      0.00000000	     21.27464126	     -9.17653632	     -5.62921672	     -3.95063611	      2.51094218	    -12.75735987	      0.00000000	    -24.61059784	      0.79607315	     18.80242588
      4.64000000	      2.90077809	     -6.30075883	    -14.08622956	      0.73217549	      0.92166987	     -0.12743627	    -25.32967450	      2.95667224	      5.50600251	     -8.76959935	     14.91855644	     11.46661590	      0.00000000	     21.41584160	     -7.97126873	     -4.30511628	     -5.64695116	      0.46222960	    -14.70565053	      0.00000000	    -24.43319559	      0.18825929	     18.25528263
      4.65000000	      3.11884939	     -5.55350049	    -13.69645710	      0.74773726	      0.92164177	     -0.12981690	    -25.38378960	      1.94204631	      4.40582646	    -10.34564721	     13.84134871	     12.45170758	      0.00000000	     21.73200509	     -6.63935510	     -3.07813830	     -7.65310565	     -1.67812882	    -16.52295444	      0.00000000	    -24.25317921	     -0.42167183	     17.48376806
      4.66000000	      3.34233806	     -4.80413918	    -13.22732941	      0.76333398	      0.92183081	     -0.13228892	    -25.33828712	      0.95926177	      3.27014915	    -12.10738670	     12.49143725	     13.38326145	      0.00000000	     22.10478120	     -5.27600444	     -1.96066196	     -9.82663736	     -3.69322797	    -18.12953586	      0.00000000	    -24.09306920	     -1.02523425	     16.65697809
      4.67000000	      3.57170105	     -4.08132072	    -12.72393005	      0.77895683	      0.92221210	     -0.13475654	    -25.16299100	      0.01479816	      2.09168751	    -14.11439403	     10.85030875	     14.27887794	      0.00000000	     22.46495309	     -3.94244064	     -1.04274880	    -12.07192933	     -5.25385265	    -19.27724219	      0.00000000	    -23.95360374	     -1.61034789	     15.81916353
      4.68000000	      3.79390761	     -3.37472639	    -12.22247222	      0.79466283	      0.92273997	     -0.13712482	    -24.84557272	     -0.91311366	      0.96321495	    -16.34381867	      8.85657197	     15.06249940	      0.00000000	     22.77034989	     -2.65979764	     -0.44019622	    -14.29903177	     -6.14070906	    -19.87329677	      0.00000000	    -23.79409678	     -2.19376808	     15.02147359
      4.69000000	      4.03641516	     -2.78918000	    -11.79296456	      0.81013201	      0.92347074	     -0.13943594	    -24.31781516	     -1.77490319	     -0.14396414	    -18.93434535	      6.49130601	     15.72844958	      0.00000000	     22.92767594	     -1.54610478	     -0.07992281	    -16.39604325	     -6.37306169	    -20.17509866	      0.00000000	    -23.73845024	     -2.68446622	     14.37844531
      4.70000000	      4.25921205	     -2.23816492	    -11.37176304	      0.82549005	      0.92432565	     -0.14171226	    -23.56775979	     -2.61824151	     -1.15464206	    -21.78684064	      3.71695371	     16.24774098	      0.00000000	     22.97014210	     -0.50341077	      0.10925271	    -18.30801759	     -6.04896680	    -20.24566215	      0.00000000	    -23.67875052	     -3.14959293	     13.79771805
      4.71000000	      4.45990718	     -1.69751549	    -11.03913346	      0.84060985	      0.92528195	     -0.14385188	    -22.53725295	     -3.48689321	     -2.00003104	    -24.93523439	      0.59211079	     16.39122330	      0.00000000	     22.88880698	      0.46063707	      0.07873979	    -20.01067320	     -5.16072166	    -20.09931571	      0.00000000	    -23.62452282	     -3.63387071	     13.26742153
      4.72000000	      4.55970503	     -1.24128541	    -10.74222354	      0.85533489	      0.92619620	     -0.14594693	    -21.15566132	     -4.25723214	     -2.60432124	    -28.33567590	     -2.81243118	     16.13367680	      0.00000000	     22.80937602	      1.27404841	     -0.10311569	    -21.57519873	     -3.68846605	    -19.63534816	      0.00000000	    -23.52066861	     -4.00719289	     12.78092551
      4.73000000	      4.59155698	     -0.80761354	    -10.58149711	      0.86956878	      0.92717538	     -0.14775090	    -19.44011121	     -4.98191935	     -2.78257135	    -31.93792726	     -6.39361487	     15.32859752	      0.00000000	     22.67994472	      1.96764447	     -0.46524316	    -22.93394320	     -2.01402619	    -19.01452939	      0.00000000	    -23.39866694	     -4.41153096	     12.43222476
      4.74000000	      4.58150186	     -0.37351964	    -10.49008649	      0.88337703	      0.92814848	     -0.14939829	    -17.46253342	     -5.65056389	     -2.63726145	    -35.66615142	     -9.96157572	     14.08886425	      0.00000000	     22.48876051	      2.61230275	     -0.90892107	    -24.08365001	     -0.26523135	    -18.34794440	      0.00000000	    -23.27103807	     -4.83765918	     12.11447865
      4.75000000	      4.48549296	      0.05868607	    -10.45547352	      0.89678647	      0.92902310	     -0.15086683	    -15.21641143	     -6.21609552	     -2.16791009	    -39.44958330	    -13.34147788	     12.50266077	      0.00000000	     22.29831644	      3.20442462	     -1.39769310	    -25.04403409	      1.47521839	    -17.62890627	      0.00000000	    -23.07385634	     -5.26794007	     11.79751561
      4.76000000	      4.38329629	      0.48921845	    -10.46214043	      0.90979684	      0.92987429	     -0.15216939	    -12.83371754	     -6.67766105	     -1.46289986	    -43.20801509	    -16.36634660	     10.68357097	      0.00000000	     22.03204474	      3.77387403	     -1.88780238	    -25.81566204	      3.09975381	    -16.94145198	      0.00000000	    -22.89883801	     -5.70548653	     11.48655656
